# Wavefront OBJ file automatically generated by Tiled2Unity

# Vertices (Count = 170)
v -480 -32 0
v -512 -32 0
v -512 0 0
v -480 0 0
v -448 -32 0
v -448 0 0
v -416 -32 0
v -416 0 0
v -384 -32 0
v -384 0 0
v -352 -32 0
v -352 0 0
v -320 -32 0
v -320 0 0
v -288 -32 0
v -288 0 0
v -256 -32 0
v -256 0 0
v -224 -32 0
v -224 0 0
v -192 -32 0
v -192 0 0
v -160 -32 0
v -160 0 0
v -128 -32 0
v -128 0 0
v -96 -32 0
v -96 0 0
v -64 -32 0
v -64 0 0
v -32 -32 0
v -32 0 0
v 0 -32 0
v 0 0 0
v -480 -64 0
v -512 -64 0
v -448 -64 0
v -416 -64 0
v -384 -64 0
v -352 -64 0
v -320 -64 0
v -288 -64 0
v -256 -64 0
v -224 -64 0
v -192 -64 0
v -160 -64 0
v -128 -64 0
v -96 -64 0
v -64 -64 0
v -32 -64 0
v 0 -64 0
v -480 -96 0
v -512 -96 0
v -448 -96 0
v -416 -96 0
v -384 -96 0
v -352 -96 0
v -320 -96 0
v -288 -96 0
v -256 -96 0
v -224 -96 0
v -192 -96 0
v -160 -96 0
v -128 -96 0
v -96 -96 0
v -64 -96 0
v -32 -96 0
v 0 -96 0
v -480 -128 0
v -512 -128 0
v -448 -128 0
v -416 -128 0
v -384 -128 0
v -352 -128 0
v -320 -128 0
v -288 -128 0
v -256 -128 0
v -224 -128 0
v -192 -128 0
v -160 -128 0
v -128 -128 0
v -96 -128 0
v -64 -128 0
v -32 -128 0
v 0 -128 0
v -480 -160 0
v -512 -160 0
v -448 -160 0
v -416 -160 0
v -384 -160 0
v -352 -160 0
v -320 -160 0
v -288 -160 0
v -256 -160 0
v -224 -160 0
v -192 -160 0
v -160 -160 0
v -128 -160 0
v -96 -160 0
v -64 -160 0
v -32 -160 0
v 0 -160 0
v -480 -192 0
v -512 -192 0
v -448 -192 0
v -416 -192 0
v -384 -192 0
v -352 -192 0
v -320 -192 0
v -288 -192 0
v -256 -192 0
v -224 -192 0
v -192 -192 0
v -160 -192 0
v -128 -192 0
v -96 -192 0
v -64 -192 0
v -32 -192 0
v 0 -192 0
v -480 -224 0
v -512 -224 0
v -448 -224 0
v -416 -224 0
v -384 -224 0
v -352 -224 0
v -320 -224 0
v -288 -224 0
v -256 -224 0
v -224 -224 0
v -192 -224 0
v -160 -224 0
v -128 -224 0
v -96 -224 0
v -64 -224 0
v -32 -224 0
v 0 -224 0
v -480 -256 0
v -512 -256 0
v -448 -256 0
v -416 -256 0
v -384 -256 0
v -352 -256 0
v -320 -256 0
v -288 -256 0
v -256 -256 0
v -224 -256 0
v -192 -256 0
v -160 -256 0
v -128 -256 0
v -96 -256 0
v -64 -256 0
v -32 -256 0
v 0 -256 0
v -480 -288 0
v -512 -288 0
v -448 -288 0
v -416 -288 0
v -384 -288 0
v -352 -288 0
v -320 -288 0
v -288 -288 0
v -256 -288 0
v -224 -288 0
v -192 -288 0
v -160 -288 0
v -128 -288 0
v -96 -288 0
v -64 -288 0
v -32 -288 0
v 0 -288 0

# Texture cooridinates (Count = 120)
vt 0.5938721 0.8126221
vt 0.6248779 0.8126221
vt 0.6248779 0.8436279
vt 0.5938721 0.8436279
vt 0.6251221 0.8126221
vt 0.6561279 0.8126221
vt 0.6561279 0.8436279
vt 0.6251221 0.8436279
vt 0.2501221 0.9376221
vt 0.2811279 0.9376221
vt 0.2811279 0.9686279
vt 0.2501221 0.9686279
vt 0.1251221 0.8126221
vt 0.1561279 0.8126221
vt 0.1561279 0.8436279
vt 0.1251221 0.8436279
vt 0.06262207 0.8126221
vt 0.09362793 0.8126221
vt 0.09362793 0.8436279
vt 0.06262207 0.8436279
vt 0.03137207 0.8126221
vt 0.06237793 0.8126221
vt 0.06237793 0.8436279
vt 0.03137207 0.8436279
vt 0.1876221 0.9063721
vt 0.2186279 0.9063721
vt 0.2186279 0.9373779
vt 0.1876221 0.9373779
vt 0.2813721 0.9376221
vt 0.3123779 0.9376221
vt 0.3123779 0.9686279
vt 0.2813721 0.9686279
vt 0.2501221 0.9063721
vt 0.2811279 0.9063721
vt 0.2811279 0.9373779
vt 0.2501221 0.9373779
vt 0.1876221 0.8751221
vt 0.2186279 0.8751221
vt 0.2186279 0.9061279
vt 0.1876221 0.9061279
vt 0.06262207 0.7813721
vt 0.09362793 0.7813721
vt 0.09362793 0.8123779
vt 0.06262207 0.8123779
vt 0.03137207 0.7813721
vt 0.06237793 0.7813721
vt 0.06237793 0.8123779
vt 0.03137207 0.8123779
vt 0.2813721 0.9063721
vt 0.3123779 0.9063721
vt 0.3123779 0.9373779
vt 0.2813721 0.9373779
vt 0.2501221 0.8751221
vt 0.2811279 0.8751221
vt 0.2811279 0.9061279
vt 0.2501221 0.9061279
vt 0.1876221 0.8438721
vt 0.2186279 0.8438721
vt 0.2186279 0.8748779
vt 0.1876221 0.8748779
vt 0.06262207 0.7501221
vt 0.09362793 0.7501221
vt 0.09362793 0.7811279
vt 0.06262207 0.7811279
vt 0.03137207 0.7501221
vt 0.06237793 0.7501221
vt 0.06237793 0.7811279
vt 0.03137207 0.7811279
vt 0.2813721 0.8751221
vt 0.3123779 0.8751221
vt 0.3123779 0.9061279
vt 0.2813721 0.9061279
vt 0.3438721 0.9688721
vt 0.3748779 0.9688721
vt 0.3748779 0.9998779
vt 0.3438721 0.9998779
vt 0.2188721 0.9376221
vt 0.2498779 0.9376221
vt 0.2498779 0.9686279
vt 0.2188721 0.9686279
vt 0.2501221 0.9688721
vt 0.2811279 0.9688721
vt 0.2811279 0.9998779
vt 0.2501221 0.9998779
vt 0.1876221 0.9688721
vt 0.2186279 0.9688721
vt 0.2186279 0.9998779
vt 0.1876221 0.9998779
vt 0.2813721 0.9688721
vt 0.3123779 0.9688721
vt 0.3123779 0.9998779
vt 0.2813721 0.9998779
vt 0.3126221 0.7501221
vt 0.3436279 0.7501221
vt 0.3436279 0.7811279
vt 0.3126221 0.7811279
vt 0.03137207 0.7188721
vt 0.06237793 0.7188721
vt 0.06237793 0.7498779
vt 0.03137207 0.7498779
vt 0.0001220703 0.0001220703
vt 0.1998779 0.0001220703
vt 0.1998779 0.9998779
vt 0.0001220703 0.9998779
vt 0.2001221 0.0001220703
vt 0.3998779 0.0001220703
vt 0.3998779 0.9998779
vt 0.2001221 0.9998779
vt 0.4001221 0.0001220703
vt 0.599878 0.0001220703
vt 0.599878 0.9998779
vt 0.4001221 0.9998779
vt 0.6001221 0.0001220703
vt 0.7998779 0.0001220703
vt 0.7998779 0.9998779
vt 0.6001221 0.9998779
vt 0.8001221 0.0001220703
vt 0.9998779 0.0001220703
vt 0.9998779 0.9998779
vt 0.8001221 0.9998779

# Normal
vn 0 0 -1

# Groups (Count = 4)

g mesh_0001
f 1/1/1 2/2/1 3/3/1 4/4/1
f 5/1/1 1/2/1 4/3/1 6/4/1
f 7/1/1 5/2/1 6/3/1 8/4/1
f 9/5/1 7/6/1 8/7/1 10/8/1
f 11/1/1 9/2/1 10/3/1 12/4/1
f 13/1/1 11/2/1 12/3/1 14/4/1
f 15/5/1 13/6/1 14/7/1 16/8/1
f 17/5/1 15/6/1 16/7/1 18/8/1
f 19/1/1 17/2/1 18/3/1 20/4/1
f 21/1/1 19/2/1 20/3/1 22/4/1
f 23/5/1 21/6/1 22/7/1 24/8/1
f 25/1/1 23/2/1 24/3/1 26/4/1
f 27/1/1 25/2/1 26/3/1 28/4/1
f 29/5/1 27/6/1 28/7/1 30/8/1
f 31/5/1 29/6/1 30/7/1 32/8/1
f 33/1/1 31/2/1 32/3/1 34/4/1
f 35/5/1 36/6/1 2/7/1 1/8/1
f 37/5/1 35/6/1 1/7/1 5/8/1
f 38/5/1 37/6/1 5/7/1 7/8/1
f 39/5/1 38/6/1 7/7/1 9/8/1
f 40/5/1 39/6/1 9/7/1 11/8/1
f 41/5/1 40/6/1 11/7/1 13/8/1
f 42/5/1 41/6/1 13/7/1 15/8/1
f 43/1/1 42/2/1 15/3/1 17/4/1
f 44/5/1 43/6/1 17/7/1 19/8/1
f 45/1/1 44/2/1 19/3/1 21/4/1
f 46/1/1 45/2/1 21/3/1 23/4/1
f 47/5/1 46/6/1 23/7/1 25/8/1
f 48/5/1 47/6/1 25/7/1 27/8/1
f 49/5/1 48/6/1 27/7/1 29/8/1
f 50/1/1 49/2/1 29/3/1 31/4/1
f 51/5/1 50/6/1 31/7/1 33/8/1
f 52/1/1 53/2/1 36/3/1 35/4/1
f 54/5/1 52/6/1 35/7/1 37/8/1
f 55/1/1 54/2/1 37/3/1 38/4/1
f 56/5/1 55/6/1 38/7/1 39/8/1
f 57/1/1 56/2/1 39/3/1 40/4/1
f 58/1/1 57/2/1 40/3/1 41/4/1
f 59/1/1 58/2/1 41/3/1 42/4/1
f 60/5/1 59/6/1 42/7/1 43/8/1
f 61/1/1 60/2/1 43/3/1 44/4/1
f 62/5/1 61/6/1 44/7/1 45/8/1
f 63/5/1 62/6/1 45/7/1 46/8/1
f 64/1/1 63/2/1 46/3/1 47/4/1
f 65/5/1 64/6/1 47/7/1 48/8/1
f 66/1/1 65/2/1 48/3/1 49/4/1
f 67/5/1 66/6/1 49/7/1 50/8/1
f 68/1/1 67/2/1 50/3/1 51/4/1
f 69/1/1 70/2/1 53/3/1 52/4/1
f 71/5/1 69/6/1 52/7/1 54/8/1
f 72/1/1 71/2/1 54/3/1 55/4/1
f 73/1/1 72/2/1 55/3/1 56/4/1
f 74/5/1 73/6/1 56/7/1 57/8/1
f 75/1/1 74/2/1 57/3/1 58/4/1
f 76/5/1 75/6/1 58/7/1 59/8/1
f 77/1/1 76/2/1 59/3/1 60/4/1
f 78/5/1 77/6/1 60/7/1 61/8/1
f 79/1/1 78/2/1 61/3/1 62/4/1
f 80/1/1 79/2/1 62/3/1 63/4/1
f 81/5/1 80/6/1 63/7/1 64/8/1
f 82/5/1 81/6/1 64/7/1 65/8/1
f 83/5/1 82/6/1 65/7/1 66/8/1
f 84/5/1 83/6/1 66/7/1 67/8/1
f 85/5/1 84/6/1 67/7/1 68/8/1
f 86/1/1 87/2/1 70/3/1 69/4/1
f 88/1/1 86/2/1 69/3/1 71/4/1
f 89/1/1 88/2/1 71/3/1 72/4/1
f 90/1/1 89/2/1 72/3/1 73/4/1
f 91/5/1 90/6/1 73/7/1 74/8/1
f 92/1/1 91/2/1 74/3/1 75/4/1
f 93/5/1 92/6/1 75/7/1 76/8/1
f 94/5/1 93/6/1 76/7/1 77/8/1
f 95/1/1 94/2/1 77/3/1 78/4/1
f 96/5/1 95/6/1 78/7/1 79/8/1
f 97/5/1 96/6/1 79/7/1 80/8/1
f 98/5/1 97/6/1 80/7/1 81/8/1
f 99/5/1 98/6/1 81/7/1 82/8/1
f 100/1/1 99/2/1 82/3/1 83/4/1
f 101/1/1 100/2/1 83/3/1 84/4/1
f 102/5/1 101/6/1 84/7/1 85/8/1
f 103/5/1 104/6/1 87/7/1 86/8/1
f 105/1/1 103/2/1 86/3/1 88/4/1
f 106/5/1 105/6/1 88/7/1 89/8/1
f 107/5/1 106/6/1 89/7/1 90/8/1
f 108/1/1 107/2/1 90/3/1 91/4/1
f 109/1/1 108/2/1 91/3/1 92/4/1
f 110/5/1 109/6/1 92/7/1 93/8/1
f 111/1/1 110/2/1 93/3/1 94/4/1
f 112/1/1 111/2/1 94/3/1 95/4/1
f 113/5/1 112/6/1 95/7/1 96/8/1
f 114/1/1 113/2/1 96/3/1 97/4/1
f 115/5/1 114/6/1 97/7/1 98/8/1
f 116/1/1 115/2/1 98/3/1 99/4/1
f 117/5/1 116/6/1 99/7/1 100/8/1
f 118/5/1 117/6/1 100/7/1 101/8/1
f 119/1/1 118/2/1 101/3/1 102/4/1
f 120/5/1 121/6/1 104/7/1 103/8/1
f 122/5/1 120/6/1 103/7/1 105/8/1
f 123/5/1 122/6/1 105/7/1 106/8/1
f 124/5/1 123/6/1 106/7/1 107/8/1
f 125/1/1 124/2/1 107/3/1 108/4/1
f 126/5/1 125/6/1 108/7/1 109/8/1
f 127/1/1 126/2/1 109/3/1 110/4/1
f 128/1/1 127/2/1 110/3/1 111/4/1
f 129/5/1 128/6/1 111/7/1 112/8/1
f 130/1/1 129/2/1 112/3/1 113/4/1
f 131/1/1 130/2/1 113/3/1 114/4/1
f 132/1/1 131/2/1 114/3/1 115/4/1
f 133/5/1 132/6/1 115/7/1 116/8/1
f 134/1/1 133/2/1 116/3/1 117/4/1
f 135/1/1 134/2/1 117/3/1 118/4/1
f 136/5/1 135/6/1 118/7/1 119/8/1
f 137/5/1 138/6/1 121/7/1 120/8/1
f 139/5/1 137/6/1 120/7/1 122/8/1
f 140/1/1 139/2/1 122/3/1 123/4/1
f 141/1/1 140/2/1 123/3/1 124/4/1
f 142/1/1 141/2/1 124/3/1 125/4/1
f 143/1/1 142/2/1 125/3/1 126/4/1
f 144/1/1 143/2/1 126/3/1 127/4/1
f 145/5/1 144/6/1 127/7/1 128/8/1
f 146/1/1 145/2/1 128/3/1 129/4/1
f 147/1/1 146/2/1 129/3/1 130/4/1
f 148/1/1 147/2/1 130/3/1 131/4/1
f 149/5/1 148/6/1 131/7/1 132/8/1
f 150/1/1 149/2/1 132/3/1 133/4/1
f 151/5/1 150/6/1 133/7/1 134/8/1
f 152/1/1 151/2/1 134/3/1 135/4/1
f 153/5/1 152/6/1 135/7/1 136/8/1
f 154/5/1 155/6/1 138/7/1 137/8/1
f 156/5/1 154/6/1 137/7/1 139/8/1
f 157/1/1 156/2/1 139/3/1 140/4/1
f 158/5/1 157/6/1 140/7/1 141/8/1
f 159/1/1 158/2/1 141/3/1 142/4/1
f 160/5/1 159/6/1 142/7/1 143/8/1
f 161/1/1 160/2/1 143/3/1 144/4/1
f 162/1/1 161/2/1 144/3/1 145/4/1
f 163/1/1 162/2/1 145/3/1 146/4/1
f 164/1/1 163/2/1 146/3/1 147/4/1
f 165/5/1 164/6/1 147/7/1 148/8/1
f 166/5/1 165/6/1 148/7/1 149/8/1
f 167/1/1 166/2/1 149/3/1 150/4/1
f 168/1/1 167/2/1 150/3/1 151/4/1
f 169/5/1 168/6/1 151/7/1 152/8/1
f 170/5/1 169/6/1 152/7/1 153/8/1

g mesh_0002
f 1/9/1 2/10/1 3/11/1 4/12/1
f 5/13/1 1/14/1 4/15/1 6/16/1
f 7/13/1 5/14/1 6/15/1 8/16/1
f 9/13/1 7/14/1 8/15/1 10/16/1
f 11/13/1 9/14/1 10/15/1 12/16/1
f 13/13/1 11/14/1 12/15/1 14/16/1
f 15/13/1 13/14/1 14/15/1 16/16/1
f 17/13/1 15/14/1 16/15/1 18/16/1
f 19/13/1 17/14/1 18/15/1 20/16/1
f 21/17/1 19/18/1 20/19/1 22/20/1
f 23/21/1 21/22/1 22/23/1 24/24/1
f 25/25/1 23/26/1 24/27/1 26/28/1
f 27/25/1 25/26/1 26/27/1 28/28/1
f 29/25/1 27/26/1 28/27/1 30/28/1
f 31/25/1 29/26/1 30/27/1 32/28/1
f 33/29/1 31/30/1 32/31/1 34/32/1
f 35/33/1 36/34/1 2/35/1 1/36/1
f 37/37/1 35/38/1 1/39/1 5/40/1
f 38/37/1 37/38/1 5/39/1 7/40/1
f 39/37/1 38/38/1 7/39/1 9/40/1
f 40/37/1 39/38/1 9/39/1 11/40/1
f 41/37/1 40/38/1 11/39/1 13/40/1
f 42/37/1 41/38/1 13/39/1 15/40/1
f 43/37/1 42/38/1 15/39/1 17/40/1
f 44/37/1 43/38/1 17/39/1 19/40/1
f 45/41/1 44/42/1 19/43/1 21/44/1
f 46/45/1 45/46/1 21/47/1 23/48/1
f 47/37/1 46/38/1 23/39/1 25/40/1
f 48/37/1 47/38/1 25/39/1 27/40/1
f 49/37/1 48/38/1 27/39/1 29/40/1
f 50/37/1 49/38/1 29/39/1 31/40/1
f 51/49/1 50/50/1 31/51/1 33/52/1
f 52/53/1 53/54/1 36/55/1 35/56/1
f 54/57/1 52/58/1 35/59/1 37/60/1
f 55/57/1 54/58/1 37/59/1 38/60/1
f 56/57/1 55/58/1 38/59/1 39/60/1
f 57/57/1 56/58/1 39/59/1 40/60/1
f 58/57/1 57/58/1 40/59/1 41/60/1
f 59/57/1 58/58/1 41/59/1 42/60/1
f 60/57/1 59/58/1 42/59/1 43/60/1
f 61/57/1 60/58/1 43/59/1 44/60/1
f 62/61/1 61/62/1 44/63/1 45/64/1
f 63/65/1 62/66/1 45/67/1 46/68/1
f 64/57/1 63/58/1 46/59/1 47/60/1
f 65/57/1 64/58/1 47/59/1 48/60/1
f 66/57/1 65/58/1 48/59/1 49/60/1
f 67/57/1 66/58/1 49/59/1 50/60/1
f 68/69/1 67/70/1 50/71/1 51/72/1
f 69/73/1 70/74/1 53/75/1 52/76/1
f 85/77/1 84/78/1 67/79/1 68/80/1
f 86/73/1 87/74/1 70/75/1 69/76/1
f 102/77/1 101/78/1 84/79/1 85/80/1
f 103/73/1 104/74/1 87/75/1 86/76/1
f 119/77/1 118/78/1 101/79/1 102/80/1
f 120/73/1 121/74/1 104/75/1 103/76/1
f 136/77/1 135/78/1 118/79/1 119/80/1
f 137/73/1 138/74/1 121/75/1 120/76/1
f 153/77/1 152/78/1 135/79/1 136/80/1
f 154/81/1 155/82/1 138/83/1 137/84/1
f 156/85/1 154/86/1 137/87/1 139/88/1
f 157/85/1 156/86/1 139/87/1 140/88/1
f 158/85/1 157/86/1 140/87/1 141/88/1
f 159/85/1 158/86/1 141/87/1 142/88/1
f 160/85/1 159/86/1 142/87/1 143/88/1
f 161/85/1 160/86/1 143/87/1 144/88/1
f 162/85/1 161/86/1 144/87/1 145/88/1
f 163/85/1 162/86/1 145/87/1 146/88/1
f 164/85/1 163/86/1 146/87/1 147/88/1
f 165/85/1 164/86/1 147/87/1 148/88/1
f 166/85/1 165/86/1 148/87/1 149/88/1
f 167/85/1 166/86/1 149/87/1 150/88/1
f 168/85/1 167/86/1 150/87/1 151/88/1
f 169/85/1 168/86/1 151/87/1 152/88/1
f 170/89/1 169/90/1 152/91/1 153/92/1

g mesh_0003
f 76/93/1 75/94/1 58/95/1 59/96/1
f 89/97/1 88/98/1 71/99/1 72/100/1
f 100/97/1 99/98/1 82/99/1 83/100/1
f 133/93/1 132/94/1 115/95/1 116/96/1
f 145/97/1 144/98/1 127/99/1 128/100/1

g mesh_0004
f 21/101/1 19/102/1 20/103/1 22/104/1
f 23/101/1 21/102/1 22/103/1 24/104/1
f 35/101/1 36/102/1 2/103/1 1/104/1
f 37/101/1 35/102/1 1/103/1 5/104/1
f 38/101/1 37/102/1 5/103/1 7/104/1
f 39/101/1 38/102/1 7/103/1 9/104/1
f 40/101/1 39/102/1 9/103/1 11/104/1
f 41/101/1 40/102/1 11/103/1 13/104/1
f 42/101/1 41/102/1 13/103/1 15/104/1
f 43/101/1 42/102/1 15/103/1 17/104/1
f 44/101/1 43/102/1 17/103/1 19/104/1
f 47/101/1 46/102/1 23/103/1 25/104/1
f 48/101/1 47/102/1 25/103/1 27/104/1
f 49/101/1 48/102/1 27/103/1 29/104/1
f 50/101/1 49/102/1 29/103/1 31/104/1
f 51/101/1 50/102/1 31/103/1 33/104/1
f 52/105/1 53/106/1 36/107/1 35/108/1
f 68/109/1 67/110/1 50/111/1 51/112/1
f 69/105/1 70/106/1 53/107/1 52/108/1
f 76/113/1 75/114/1 58/115/1 59/116/1
f 85/109/1 84/110/1 67/111/1 68/112/1
f 86/105/1 87/106/1 70/107/1 69/108/1
f 89/113/1 88/114/1 71/115/1 72/116/1
f 100/113/1 99/114/1 82/115/1 83/116/1
f 102/109/1 101/110/1 84/111/1 85/112/1
f 103/105/1 104/106/1 87/107/1 86/108/1
f 119/109/1 118/110/1 101/111/1 102/112/1
f 120/105/1 121/106/1 104/107/1 103/108/1
f 133/113/1 132/114/1 115/115/1 116/116/1
f 136/109/1 135/110/1 118/111/1 119/112/1
f 137/105/1 138/106/1 121/107/1 120/108/1
f 145/113/1 144/114/1 127/115/1 128/116/1
f 153/109/1 152/110/1 135/111/1 136/112/1
f 154/105/1 155/106/1 138/107/1 137/108/1
f 156/117/1 154/118/1 137/119/1 139/120/1
f 157/117/1 156/118/1 139/119/1 140/120/1
f 158/117/1 157/118/1 140/119/1 141/120/1
f 159/117/1 158/118/1 141/119/1 142/120/1
f 160/117/1 159/118/1 142/119/1 143/120/1
f 161/117/1 160/118/1 143/119/1 144/120/1
f 162/117/1 161/118/1 144/119/1 145/120/1
f 163/117/1 162/118/1 145/119/1 146/120/1
f 164/117/1 163/118/1 146/119/1 147/120/1
f 165/117/1 164/118/1 147/119/1 148/120/1
f 166/117/1 165/118/1 148/119/1 149/120/1
f 167/117/1 166/118/1 149/119/1 150/120/1
f 168/117/1 167/118/1 150/119/1 151/120/1
f 169/117/1 168/118/1 151/119/1 152/120/1
f 170/109/1 169/110/1 152/111/1 153/112/1

