# Wavefront OBJ file automatically generated by Tiled2Unity

# Vertices (Count = 170)
v -480 -32 0
v -512 -32 0
v -512 0 0
v -480 0 0
v -448 -32 0
v -448 0 0
v -416 -32 0
v -416 0 0
v -384 -32 0
v -384 0 0
v -352 -32 0
v -352 0 0
v -320 -32 0
v -320 0 0
v -288 -32 0
v -288 0 0
v -256 -32 0
v -256 0 0
v -224 -32 0
v -224 0 0
v -192 -32 0
v -192 0 0
v -160 -32 0
v -160 0 0
v -128 -32 0
v -128 0 0
v -96 -32 0
v -96 0 0
v -64 -32 0
v -64 0 0
v -32 -32 0
v -32 0 0
v 0 -32 0
v 0 0 0
v -480 -64 0
v -512 -64 0
v -448 -64 0
v -416 -64 0
v -384 -64 0
v -352 -64 0
v -320 -64 0
v -288 -64 0
v -256 -64 0
v -224 -64 0
v -192 -64 0
v -160 -64 0
v -128 -64 0
v -96 -64 0
v -64 -64 0
v -32 -64 0
v 0 -64 0
v -480 -96 0
v -512 -96 0
v -448 -96 0
v -416 -96 0
v -384 -96 0
v -352 -96 0
v -320 -96 0
v -288 -96 0
v -256 -96 0
v -224 -96 0
v -192 -96 0
v -160 -96 0
v -128 -96 0
v -96 -96 0
v -64 -96 0
v -32 -96 0
v 0 -96 0
v -480 -128 0
v -512 -128 0
v -448 -128 0
v -416 -128 0
v -384 -128 0
v -352 -128 0
v -320 -128 0
v -288 -128 0
v -256 -128 0
v -224 -128 0
v -192 -128 0
v -160 -128 0
v -128 -128 0
v -96 -128 0
v -64 -128 0
v -32 -128 0
v 0 -128 0
v -480 -160 0
v -512 -160 0
v -448 -160 0
v -416 -160 0
v -384 -160 0
v -352 -160 0
v -320 -160 0
v -288 -160 0
v -256 -160 0
v -224 -160 0
v -192 -160 0
v -160 -160 0
v -128 -160 0
v -96 -160 0
v -64 -160 0
v -32 -160 0
v 0 -160 0
v -480 -192 0
v -512 -192 0
v -448 -192 0
v -416 -192 0
v -384 -192 0
v -352 -192 0
v -320 -192 0
v -288 -192 0
v -256 -192 0
v -224 -192 0
v -192 -192 0
v -160 -192 0
v -128 -192 0
v -96 -192 0
v -64 -192 0
v -32 -192 0
v 0 -192 0
v -480 -224 0
v -512 -224 0
v -448 -224 0
v -416 -224 0
v -384 -224 0
v -352 -224 0
v -320 -224 0
v -288 -224 0
v -256 -224 0
v -224 -224 0
v -192 -224 0
v -160 -224 0
v -128 -224 0
v -96 -224 0
v -64 -224 0
v -32 -224 0
v 0 -224 0
v -480 -256 0
v -512 -256 0
v -448 -256 0
v -416 -256 0
v -384 -256 0
v -352 -256 0
v -320 -256 0
v -288 -256 0
v -256 -256 0
v -224 -256 0
v -192 -256 0
v -160 -256 0
v -128 -256 0
v -96 -256 0
v -64 -256 0
v -32 -256 0
v 0 -256 0
v -480 -288 0
v -512 -288 0
v -448 -288 0
v -416 -288 0
v -384 -288 0
v -352 -288 0
v -320 -288 0
v -288 -288 0
v -256 -288 0
v -224 -288 0
v -192 -288 0
v -160 -288 0
v -128 -288 0
v -96 -288 0
v -64 -288 0
v -32 -288 0
v 0 -288 0

# Texture cooridinates (Count = 152)
vt 0.5938721 0.8126221
vt 0.6248779 0.8126221
vt 0.6248779 0.8436279
vt 0.5938721 0.8436279
vt 0.6251221 0.8126221
vt 0.6561279 0.8126221
vt 0.6561279 0.8436279
vt 0.6251221 0.8436279
vt 0.5001221 0.7188721
vt 0.5311279 0.7188721
vt 0.5311279 0.7498779
vt 0.5001221 0.7498779
vt 0.4688721 0.7188721
vt 0.4998779 0.7188721
vt 0.4998779 0.7498779
vt 0.4688721 0.7498779
vt 0.5001221 0.6876221
vt 0.5311279 0.6876221
vt 0.5311279 0.7186279
vt 0.5001221 0.7186279
vt 0.4688721 0.6876221
vt 0.4998779 0.6876221
vt 0.4998779 0.7186279
vt 0.4688721 0.7186279
vt 0.5001221 0.6563721
vt 0.5311279 0.6563721
vt 0.5311279 0.6873779
vt 0.5001221 0.6873779
vt 0.4688721 0.6563721
vt 0.4998779 0.6563721
vt 0.4998779 0.6873779
vt 0.4688721 0.6873779
vt 0.5313721 0.7188721
vt 0.5623779 0.7188721
vt 0.5623779 0.7498779
vt 0.5313721 0.7498779
vt 0.5313721 0.6876221
vt 0.5623779 0.6876221
vt 0.5623779 0.7186279
vt 0.5313721 0.7186279
vt 0.2501221 0.9376221
vt 0.2811279 0.9376221
vt 0.2811279 0.9686279
vt 0.2501221 0.9686279
vt 0.1251221 0.8126221
vt 0.1561279 0.8126221
vt 0.1561279 0.8436279
vt 0.1251221 0.8436279
vt 0.06262207 0.8126221
vt 0.09362793 0.8126221
vt 0.09362793 0.8436279
vt 0.06262207 0.8436279
vt 0.03137207 0.8126221
vt 0.06237793 0.8126221
vt 0.06237793 0.8436279
vt 0.03137207 0.8436279
vt 0.1876221 0.9063721
vt 0.2186279 0.9063721
vt 0.2186279 0.9373779
vt 0.1876221 0.9373779
vt 0.2813721 0.9376221
vt 0.3123779 0.9376221
vt 0.3123779 0.9686279
vt 0.2813721 0.9686279
vt 0.2501221 0.9063721
vt 0.2811279 0.9063721
vt 0.2811279 0.9373779
vt 0.2501221 0.9373779
vt 0.1876221 0.8751221
vt 0.2186279 0.8751221
vt 0.2186279 0.9061279
vt 0.1876221 0.9061279
vt 0.06262207 0.7813721
vt 0.09362793 0.7813721
vt 0.09362793 0.8123779
vt 0.06262207 0.8123779
vt 0.03137207 0.7813721
vt 0.06237793 0.7813721
vt 0.06237793 0.8123779
vt 0.03137207 0.8123779
vt 0.2813721 0.9063721
vt 0.3123779 0.9063721
vt 0.3123779 0.9373779
vt 0.2813721 0.9373779
vt 0.2501221 0.8751221
vt 0.2811279 0.8751221
vt 0.2811279 0.9061279
vt 0.2501221 0.9061279
vt 0.1876221 0.8438721
vt 0.2186279 0.8438721
vt 0.2186279 0.8748779
vt 0.1876221 0.8748779
vt 0.06262207 0.7501221
vt 0.09362793 0.7501221
vt 0.09362793 0.7811279
vt 0.06262207 0.7811279
vt 0.03137207 0.7501221
vt 0.06237793 0.7501221
vt 0.06237793 0.7811279
vt 0.03137207 0.7811279
vt 0.2813721 0.8751221
vt 0.3123779 0.8751221
vt 0.3123779 0.9061279
vt 0.2813721 0.9061279
vt 0.3438721 0.9688721
vt 0.3748779 0.9688721
vt 0.3748779 0.9998779
vt 0.3438721 0.9998779
vt 0.2188721 0.9376221
vt 0.2498779 0.9376221
vt 0.2498779 0.9686279
vt 0.2188721 0.9686279
vt 0.2501221 0.9688721
vt 0.2811279 0.9688721
vt 0.2811279 0.9998779
vt 0.2501221 0.9998779
vt 0.1876221 0.9688721
vt 0.2186279 0.9688721
vt 0.2186279 0.9998779
vt 0.1876221 0.9998779
vt 0.2813721 0.9688721
vt 0.3123779 0.9688721
vt 0.3123779 0.9998779
vt 0.2813721 0.9998779
vt 0.3126221 0.7501221
vt 0.3436279 0.7501221
vt 0.3436279 0.7811279
vt 0.3126221 0.7811279
vt 0.03137207 0.7188721
vt 0.06237793 0.7188721
vt 0.06237793 0.7498779
vt 0.03137207 0.7498779
vt 0.2001221 0.0001220703
vt 0.3998779 0.0001220703
vt 0.3998779 0.9998779
vt 0.2001221 0.9998779
vt 0.0001220703 0.0001220703
vt 0.1998779 0.0001220703
vt 0.1998779 0.9998779
vt 0.0001220703 0.9998779
vt 0.4001221 0.0001220703
vt 0.599878 0.0001220703
vt 0.599878 0.9998779
vt 0.4001221 0.9998779
vt 0.6001221 0.0001220703
vt 0.7998779 0.0001220703
vt 0.7998779 0.9998779
vt 0.6001221 0.9998779
vt 0.8001221 0.0001220703
vt 0.9998779 0.0001220703
vt 0.9998779 0.9998779
vt 0.8001221 0.9998779

# Normal
vn 0 0 -1

# Groups (Count = 5)

g mesh_0001
f 1/1/1 2/2/1 3/3/1 4/4/1
f 5/1/1 1/2/1 4/3/1 6/4/1
f 7/1/1 5/2/1 6/3/1 8/4/1
f 9/5/1 7/6/1 8/7/1 10/8/1
f 11/1/1 9/2/1 10/3/1 12/4/1
f 13/1/1 11/2/1 12/3/1 14/4/1
f 15/5/1 13/6/1 14/7/1 16/8/1
f 17/5/1 15/6/1 16/7/1 18/8/1
f 19/1/1 17/2/1 18/3/1 20/4/1
f 21/1/1 19/2/1 20/3/1 22/4/1
f 23/5/1 21/6/1 22/7/1 24/8/1
f 25/1/1 23/2/1 24/3/1 26/4/1
f 27/1/1 25/2/1 26/3/1 28/4/1
f 29/5/1 27/6/1 28/7/1 30/8/1
f 31/5/1 29/6/1 30/7/1 32/8/1
f 33/1/1 31/2/1 32/3/1 34/4/1
f 35/5/1 36/6/1 2/7/1 1/8/1
f 37/5/1 35/6/1 1/7/1 5/8/1
f 38/5/1 37/6/1 5/7/1 7/8/1
f 39/5/1 38/6/1 7/7/1 9/8/1
f 40/5/1 39/6/1 9/7/1 11/8/1
f 41/5/1 40/6/1 11/7/1 13/8/1
f 42/5/1 41/6/1 13/7/1 15/8/1
f 43/1/1 42/2/1 15/3/1 17/4/1
f 44/5/1 43/6/1 17/7/1 19/8/1
f 45/1/1 44/2/1 19/3/1 21/4/1
f 46/1/1 45/2/1 21/3/1 23/4/1
f 47/5/1 46/6/1 23/7/1 25/8/1
f 48/5/1 47/6/1 25/7/1 27/8/1
f 49/5/1 48/6/1 27/7/1 29/8/1
f 50/1/1 49/2/1 29/3/1 31/4/1
f 51/5/1 50/6/1 31/7/1 33/8/1
f 52/1/1 53/2/1 36/3/1 35/4/1
f 54/5/1 52/6/1 35/7/1 37/8/1
f 55/1/1 54/2/1 37/3/1 38/4/1
f 56/5/1 55/6/1 38/7/1 39/8/1
f 57/1/1 56/2/1 39/3/1 40/4/1
f 58/1/1 57/2/1 40/3/1 41/4/1
f 59/1/1 58/2/1 41/3/1 42/4/1
f 60/5/1 59/6/1 42/7/1 43/8/1
f 61/1/1 60/2/1 43/3/1 44/4/1
f 62/5/1 61/6/1 44/7/1 45/8/1
f 63/5/1 62/6/1 45/7/1 46/8/1
f 64/1/1 63/2/1 46/3/1 47/4/1
f 65/5/1 64/6/1 47/7/1 48/8/1
f 66/1/1 65/2/1 48/3/1 49/4/1
f 67/5/1 66/6/1 49/7/1 50/8/1
f 68/1/1 67/2/1 50/3/1 51/4/1
f 69/1/1 70/2/1 53/3/1 52/4/1
f 71/5/1 69/6/1 52/7/1 54/8/1
f 72/1/1 71/2/1 54/3/1 55/4/1
f 73/1/1 72/2/1 55/3/1 56/4/1
f 74/5/1 73/6/1 56/7/1 57/8/1
f 75/1/1 74/2/1 57/3/1 58/4/1
f 76/5/1 75/6/1 58/7/1 59/8/1
f 77/1/1 76/2/1 59/3/1 60/4/1
f 78/5/1 77/6/1 60/7/1 61/8/1
f 79/1/1 78/2/1 61/3/1 62/4/1
f 80/1/1 79/2/1 62/3/1 63/4/1
f 81/5/1 80/6/1 63/7/1 64/8/1
f 82/5/1 81/6/1 64/7/1 65/8/1
f 83/5/1 82/6/1 65/7/1 66/8/1
f 84/5/1 83/6/1 66/7/1 67/8/1
f 85/5/1 84/6/1 67/7/1 68/8/1
f 86/1/1 87/2/1 70/3/1 69/4/1
f 88/1/1 86/2/1 69/3/1 71/4/1
f 89/1/1 88/2/1 71/3/1 72/4/1
f 90/1/1 89/2/1 72/3/1 73/4/1
f 91/5/1 90/6/1 73/7/1 74/8/1
f 92/1/1 91/2/1 74/3/1 75/4/1
f 93/5/1 92/6/1 75/7/1 76/8/1
f 94/5/1 93/6/1 76/7/1 77/8/1
f 95/1/1 94/2/1 77/3/1 78/4/1
f 96/5/1 95/6/1 78/7/1 79/8/1
f 97/5/1 96/6/1 79/7/1 80/8/1
f 98/5/1 97/6/1 80/7/1 81/8/1
f 99/5/1 98/6/1 81/7/1 82/8/1
f 100/1/1 99/2/1 82/3/1 83/4/1
f 101/1/1 100/2/1 83/3/1 84/4/1
f 102/5/1 101/6/1 84/7/1 85/8/1
f 103/5/1 104/6/1 87/7/1 86/8/1
f 105/1/1 103/2/1 86/3/1 88/4/1
f 106/5/1 105/6/1 88/7/1 89/8/1
f 107/5/1 106/6/1 89/7/1 90/8/1
f 108/1/1 107/2/1 90/3/1 91/4/1
f 109/1/1 108/2/1 91/3/1 92/4/1
f 110/5/1 109/6/1 92/7/1 93/8/1
f 111/1/1 110/2/1 93/3/1 94/4/1
f 112/1/1 111/2/1 94/3/1 95/4/1
f 113/5/1 112/6/1 95/7/1 96/8/1
f 114/1/1 113/2/1 96/3/1 97/4/1
f 115/5/1 114/6/1 97/7/1 98/8/1
f 116/1/1 115/2/1 98/3/1 99/4/1
f 117/5/1 116/6/1 99/7/1 100/8/1
f 118/5/1 117/6/1 100/7/1 101/8/1
f 119/1/1 118/2/1 101/3/1 102/4/1
f 120/5/1 121/6/1 104/7/1 103/8/1
f 122/5/1 120/6/1 103/7/1 105/8/1
f 123/5/1 122/6/1 105/7/1 106/8/1
f 124/5/1 123/6/1 106/7/1 107/8/1
f 125/1/1 124/2/1 107/3/1 108/4/1
f 126/5/1 125/6/1 108/7/1 109/8/1
f 127/1/1 126/2/1 109/3/1 110/4/1
f 128/1/1 127/2/1 110/3/1 111/4/1
f 129/5/1 128/6/1 111/7/1 112/8/1
f 130/1/1 129/2/1 112/3/1 113/4/1
f 131/1/1 130/2/1 113/3/1 114/4/1
f 132/1/1 131/2/1 114/3/1 115/4/1
f 133/5/1 132/6/1 115/7/1 116/8/1
f 134/1/1 133/2/1 116/3/1 117/4/1
f 135/1/1 134/2/1 117/3/1 118/4/1
f 136/5/1 135/6/1 118/7/1 119/8/1
f 137/5/1 138/6/1 121/7/1 120/8/1
f 139/5/1 137/6/1 120/7/1 122/8/1
f 140/1/1 139/2/1 122/3/1 123/4/1
f 141/1/1 140/2/1 123/3/1 124/4/1
f 142/1/1 141/2/1 124/3/1 125/4/1
f 143/1/1 142/2/1 125/3/1 126/4/1
f 144/1/1 143/2/1 126/3/1 127/4/1
f 145/5/1 144/6/1 127/7/1 128/8/1
f 146/1/1 145/2/1 128/3/1 129/4/1
f 147/1/1 146/2/1 129/3/1 130/4/1
f 148/1/1 147/2/1 130/3/1 131/4/1
f 149/5/1 148/6/1 131/7/1 132/8/1
f 150/1/1 149/2/1 132/3/1 133/4/1
f 151/5/1 150/6/1 133/7/1 134/8/1
f 152/1/1 151/2/1 134/3/1 135/4/1
f 153/5/1 152/6/1 135/7/1 136/8/1
f 154/5/1 155/6/1 138/7/1 137/8/1
f 156/5/1 154/6/1 137/7/1 139/8/1
f 157/1/1 156/2/1 139/3/1 140/4/1
f 158/5/1 157/6/1 140/7/1 141/8/1
f 159/1/1 158/2/1 141/3/1 142/4/1
f 160/5/1 159/6/1 142/7/1 143/8/1
f 161/1/1 160/2/1 143/3/1 144/4/1
f 162/1/1 161/2/1 144/3/1 145/4/1
f 163/1/1 162/2/1 145/3/1 146/4/1
f 164/1/1 163/2/1 146/3/1 147/4/1
f 165/5/1 164/6/1 147/7/1 148/8/1
f 166/5/1 165/6/1 148/7/1 149/8/1
f 167/1/1 166/2/1 149/3/1 150/4/1
f 168/1/1 167/2/1 150/3/1 151/4/1
f 169/5/1 168/6/1 151/7/1 152/8/1
f 170/5/1 169/6/1 152/7/1 153/8/1

g mesh_0002
f 52/9/1 53/10/1 36/11/1 35/12/1
f 54/13/1 52/14/1 35/15/1 37/16/1
f 69/17/1 70/18/1 53/19/1 52/20/1
f 71/21/1 69/22/1 52/23/1 54/24/1
f 86/25/1 87/26/1 70/27/1 69/28/1
f 88/29/1 86/30/1 69/31/1 71/32/1
f 116/33/1 115/34/1 98/35/1 99/36/1
f 117/9/1 116/10/1 99/11/1 100/12/1
f 118/9/1 117/10/1 100/11/1 101/12/1
f 119/9/1 118/10/1 101/11/1 102/12/1
f 120/9/1 121/10/1 104/11/1 103/12/1
f 122/13/1 120/14/1 103/15/1 105/16/1
f 133/37/1 132/38/1 115/39/1 116/40/1
f 134/17/1 133/18/1 116/19/1 117/20/1
f 135/17/1 134/18/1 117/19/1 118/20/1
f 136/17/1 135/18/1 118/19/1 119/20/1
f 137/17/1 138/18/1 121/19/1 120/20/1
f 139/21/1 137/22/1 120/23/1 122/24/1
f 150/37/1 149/38/1 132/39/1 133/40/1
f 151/17/1 150/18/1 133/19/1 134/20/1
f 152/17/1 151/18/1 134/19/1 135/20/1
f 153/17/1 152/18/1 135/19/1 136/20/1
f 154/25/1 155/26/1 138/27/1 137/28/1
f 156/29/1 154/30/1 137/31/1 139/32/1
f 167/37/1 166/38/1 149/39/1 150/40/1
f 168/17/1 167/18/1 150/19/1 151/20/1
f 169/17/1 168/18/1 151/19/1 152/20/1
f 170/17/1 169/18/1 152/19/1 153/20/1

g mesh_0003
f 1/41/1 2/42/1 3/43/1 4/44/1
f 5/45/1 1/46/1 4/47/1 6/48/1
f 7/45/1 5/46/1 6/47/1 8/48/1
f 9/45/1 7/46/1 8/47/1 10/48/1
f 11/45/1 9/46/1 10/47/1 12/48/1
f 13/45/1 11/46/1 12/47/1 14/48/1
f 15/45/1 13/46/1 14/47/1 16/48/1
f 17/49/1 15/50/1 16/51/1 18/52/1
f 19/53/1 17/54/1 18/55/1 20/56/1
f 21/57/1 19/58/1 20/59/1 22/60/1
f 23/57/1 21/58/1 22/59/1 24/60/1
f 25/49/1 23/50/1 24/51/1 26/52/1
f 27/53/1 25/54/1 26/55/1 28/56/1
f 29/57/1 27/58/1 28/59/1 30/60/1
f 31/57/1 29/58/1 30/59/1 32/60/1
f 33/61/1 31/62/1 32/63/1 34/64/1
f 35/65/1 36/66/1 2/67/1 1/68/1
f 37/69/1 35/70/1 1/71/1 5/72/1
f 38/69/1 37/70/1 5/71/1 7/72/1
f 39/69/1 38/70/1 7/71/1 9/72/1
f 40/69/1 39/70/1 9/71/1 11/72/1
f 41/69/1 40/70/1 11/71/1 13/72/1
f 42/69/1 41/70/1 13/71/1 15/72/1
f 43/73/1 42/74/1 15/75/1 17/76/1
f 44/77/1 43/78/1 17/79/1 19/80/1
f 45/69/1 44/70/1 19/71/1 21/72/1
f 46/69/1 45/70/1 21/71/1 23/72/1
f 47/73/1 46/74/1 23/75/1 25/76/1
f 48/77/1 47/78/1 25/79/1 27/80/1
f 49/69/1 48/70/1 27/71/1 29/72/1
f 50/69/1 49/70/1 29/71/1 31/72/1
f 51/81/1 50/82/1 31/83/1 33/84/1
f 52/85/1 53/86/1 36/87/1 35/88/1
f 54/89/1 52/90/1 35/91/1 37/92/1
f 55/89/1 54/90/1 37/91/1 38/92/1
f 56/89/1 55/90/1 38/91/1 39/92/1
f 57/89/1 56/90/1 39/91/1 40/92/1
f 58/89/1 57/90/1 40/91/1 41/92/1
f 59/89/1 58/90/1 41/91/1 42/92/1
f 60/93/1 59/94/1 42/95/1 43/96/1
f 61/97/1 60/98/1 43/99/1 44/100/1
f 62/89/1 61/90/1 44/91/1 45/92/1
f 63/89/1 62/90/1 45/91/1 46/92/1
f 64/93/1 63/94/1 46/95/1 47/96/1
f 65/97/1 64/98/1 47/99/1 48/100/1
f 66/89/1 65/90/1 48/91/1 49/92/1
f 67/89/1 66/90/1 49/91/1 50/92/1
f 68/101/1 67/102/1 50/103/1 51/104/1
f 69/105/1 70/106/1 53/107/1 52/108/1
f 85/109/1 84/110/1 67/111/1 68/112/1
f 86/105/1 87/106/1 70/107/1 69/108/1
f 102/109/1 101/110/1 84/111/1 85/112/1
f 103/105/1 104/106/1 87/107/1 86/108/1
f 119/109/1 118/110/1 101/111/1 102/112/1
f 120/105/1 121/106/1 104/107/1 103/108/1
f 136/109/1 135/110/1 118/111/1 119/112/1
f 137/105/1 138/106/1 121/107/1 120/108/1
f 153/109/1 152/110/1 135/111/1 136/112/1
f 154/113/1 155/114/1 138/115/1 137/116/1
f 156/117/1 154/118/1 137/119/1 139/120/1
f 157/117/1 156/118/1 139/119/1 140/120/1
f 158/117/1 157/118/1 140/119/1 141/120/1
f 159/117/1 158/118/1 141/119/1 142/120/1
f 160/117/1 159/118/1 142/119/1 143/120/1
f 161/117/1 160/118/1 143/119/1 144/120/1
f 162/117/1 161/118/1 144/119/1 145/120/1
f 163/117/1 162/118/1 145/119/1 146/120/1
f 164/117/1 163/118/1 146/119/1 147/120/1
f 165/117/1 164/118/1 147/119/1 148/120/1
f 166/117/1 165/118/1 148/119/1 149/120/1
f 167/117/1 166/118/1 149/119/1 150/120/1
f 168/117/1 167/118/1 150/119/1 151/120/1
f 169/117/1 168/118/1 151/119/1 152/120/1
f 170/121/1 169/122/1 152/123/1 153/124/1

g mesh_0004
f 73/125/1 72/126/1 55/127/1 56/128/1
f 80/129/1 79/130/1 62/131/1 63/132/1
f 130/125/1 129/126/1 112/127/1 113/128/1
f 142/129/1 141/130/1 124/131/1 125/132/1

g mesh_0005
f 35/133/1 36/134/1 2/135/1 1/136/1
f 37/137/1 35/138/1 1/139/1 5/140/1
f 38/137/1 37/138/1 5/139/1 7/140/1
f 39/137/1 38/138/1 7/139/1 9/140/1
f 40/137/1 39/138/1 9/139/1 11/140/1
f 41/137/1 40/138/1 11/139/1 13/140/1
f 42/137/1 41/138/1 13/139/1 15/140/1
f 45/137/1 44/138/1 19/139/1 21/140/1
f 46/137/1 45/138/1 21/139/1 23/140/1
f 49/137/1 48/138/1 27/139/1 29/140/1
f 50/137/1 49/138/1 29/139/1 31/140/1
f 51/137/1 50/138/1 31/139/1 33/140/1
f 52/133/1 53/134/1 36/135/1 35/136/1
f 68/141/1 67/142/1 50/143/1 51/144/1
f 69/133/1 70/134/1 53/135/1 52/136/1
f 73/145/1 72/146/1 55/147/1 56/148/1
f 80/145/1 79/146/1 62/147/1 63/148/1
f 85/141/1 84/142/1 67/143/1 68/144/1
f 86/133/1 87/134/1 70/135/1 69/136/1
f 102/141/1 101/142/1 84/143/1 85/144/1
f 103/133/1 104/134/1 87/135/1 86/136/1
f 119/141/1 118/142/1 101/143/1 102/144/1
f 120/133/1 121/134/1 104/135/1 103/136/1
f 130/145/1 129/146/1 112/147/1 113/148/1
f 136/141/1 135/142/1 118/143/1 119/144/1
f 137/133/1 138/134/1 121/135/1 120/136/1
f 142/145/1 141/146/1 124/147/1 125/148/1
f 153/141/1 152/142/1 135/143/1 136/144/1
f 154/133/1 155/134/1 138/135/1 137/136/1
f 156/149/1 154/150/1 137/151/1 139/152/1
f 157/149/1 156/150/1 139/151/1 140/152/1
f 158/149/1 157/150/1 140/151/1 141/152/1
f 159/149/1 158/150/1 141/151/1 142/152/1
f 160/149/1 159/150/1 142/151/1 143/152/1
f 161/149/1 160/150/1 143/151/1 144/152/1
f 162/149/1 161/150/1 144/151/1 145/152/1
f 163/149/1 162/150/1 145/151/1 146/152/1
f 164/149/1 163/150/1 146/151/1 147/152/1
f 165/149/1 164/150/1 147/151/1 148/152/1
f 166/149/1 165/150/1 148/151/1 149/152/1
f 167/149/1 166/150/1 149/151/1 150/152/1
f 168/149/1 167/150/1 150/151/1 151/152/1
f 169/149/1 168/150/1 151/151/1 152/152/1
f 170/149/1 169/150/1 152/151/1 153/152/1

