# Wavefront OBJ file automatically generated by Tiled2Unity

# Vertices (Count = 170)
v -480 -32 0
v -512 -32 0
v -512 0 0
v -480 0 0
v -448 -32 0
v -448 0 0
v -416 -32 0
v -416 0 0
v -384 -32 0
v -384 0 0
v -352 -32 0
v -352 0 0
v -320 -32 0
v -320 0 0
v -288 -32 0
v -288 0 0
v -256 -32 0
v -256 0 0
v -224 -32 0
v -224 0 0
v -192 -32 0
v -192 0 0
v -160 -32 0
v -160 0 0
v -128 -32 0
v -128 0 0
v -96 -32 0
v -96 0 0
v -64 -32 0
v -64 0 0
v -32 -32 0
v -32 0 0
v 0 -32 0
v 0 0 0
v -480 -64 0
v -512 -64 0
v -448 -64 0
v -416 -64 0
v -384 -64 0
v -352 -64 0
v -320 -64 0
v -288 -64 0
v -256 -64 0
v -224 -64 0
v -192 -64 0
v -160 -64 0
v -128 -64 0
v -96 -64 0
v -64 -64 0
v -32 -64 0
v 0 -64 0
v -480 -96 0
v -512 -96 0
v -448 -96 0
v -416 -96 0
v -384 -96 0
v -352 -96 0
v -320 -96 0
v -288 -96 0
v -256 -96 0
v -224 -96 0
v -192 -96 0
v -160 -96 0
v -128 -96 0
v -96 -96 0
v -64 -96 0
v -32 -96 0
v 0 -96 0
v -480 -128 0
v -512 -128 0
v -448 -128 0
v -416 -128 0
v -384 -128 0
v -352 -128 0
v -320 -128 0
v -288 -128 0
v -256 -128 0
v -224 -128 0
v -192 -128 0
v -160 -128 0
v -128 -128 0
v -96 -128 0
v -64 -128 0
v -32 -128 0
v 0 -128 0
v -480 -160 0
v -512 -160 0
v -448 -160 0
v -416 -160 0
v -384 -160 0
v -352 -160 0
v -320 -160 0
v -288 -160 0
v -256 -160 0
v -224 -160 0
v -192 -160 0
v -160 -160 0
v -128 -160 0
v -96 -160 0
v -64 -160 0
v -32 -160 0
v 0 -160 0
v -480 -192 0
v -512 -192 0
v -448 -192 0
v -416 -192 0
v -384 -192 0
v -352 -192 0
v -320 -192 0
v -288 -192 0
v -256 -192 0
v -224 -192 0
v -192 -192 0
v -160 -192 0
v -128 -192 0
v -96 -192 0
v -64 -192 0
v -32 -192 0
v 0 -192 0
v -480 -224 0
v -512 -224 0
v -448 -224 0
v -416 -224 0
v -384 -224 0
v -352 -224 0
v -320 -224 0
v -288 -224 0
v -256 -224 0
v -224 -224 0
v -192 -224 0
v -160 -224 0
v -128 -224 0
v -96 -224 0
v -64 -224 0
v -32 -224 0
v 0 -224 0
v -480 -256 0
v -512 -256 0
v -448 -256 0
v -416 -256 0
v -384 -256 0
v -352 -256 0
v -320 -256 0
v -288 -256 0
v -256 -256 0
v -224 -256 0
v -192 -256 0
v -160 -256 0
v -128 -256 0
v -96 -256 0
v -64 -256 0
v -32 -256 0
v 0 -256 0
v -480 -288 0
v -512 -288 0
v -448 -288 0
v -416 -288 0
v -384 -288 0
v -352 -288 0
v -320 -288 0
v -288 -288 0
v -256 -288 0
v -224 -288 0
v -192 -288 0
v -160 -288 0
v -128 -288 0
v -96 -288 0
v -64 -288 0
v -32 -288 0
v 0 -288 0

# Texture cooridinates (Count = 136)
vt 0.7813721 0.2813721
vt 0.8123779 0.2813721
vt 0.8123779 0.3123779
vt 0.7813721 0.3123779
vt 0.6251221 0.9063721
vt 0.6561279 0.9063721
vt 0.6561279 0.9373779
vt 0.6251221 0.9373779
vt 0.5938721 0.9063721
vt 0.6248779 0.9063721
vt 0.6248779 0.9373779
vt 0.5938721 0.9373779
vt 0.6251221 0.8751221
vt 0.6561279 0.8751221
vt 0.6561279 0.9061279
vt 0.6251221 0.9061279
vt 0.5938721 0.8751221
vt 0.6248779 0.8751221
vt 0.6248779 0.9061279
vt 0.5938721 0.9061279
vt 0.8126221 0.9063721
vt 0.8436279 0.9063721
vt 0.8436279 0.9373779
vt 0.8126221 0.9373779
vt 0.7813721 0.9063721
vt 0.8123779 0.9063721
vt 0.8123779 0.9373779
vt 0.7813721 0.9373779
vt 0.8126221 0.8751221
vt 0.8436279 0.8751221
vt 0.8436279 0.9061279
vt 0.8126221 0.9061279
vt 0.7813721 0.8751221
vt 0.8123779 0.8751221
vt 0.8123779 0.9061279
vt 0.7813721 0.9061279
vt 0.8126221 0.8438721
vt 0.8436279 0.8438721
vt 0.8436279 0.8748779
vt 0.8126221 0.8748779
vt 0.7813721 0.8438721
vt 0.8123779 0.8438721
vt 0.8123779 0.8748779
vt 0.7813721 0.8748779
vt 0.2813721 0.8438721
vt 0.3123779 0.8438721
vt 0.3123779 0.8748779
vt 0.2813721 0.8748779
vt 0.6876221 0.1563721
vt 0.7186279 0.1563721
vt 0.7186279 0.1873779
vt 0.6876221 0.1873779
vt 0.7813721 0.09387207
vt 0.8123779 0.09387207
vt 0.8123779 0.1248779
vt 0.7813721 0.1248779
vt 0.7501221 0.09387207
vt 0.7811279 0.09387207
vt 0.7811279 0.1248779
vt 0.7501221 0.1248779
vt 0.6563721 0.1563721
vt 0.6873779 0.1563721
vt 0.6873779 0.1873779
vt 0.6563721 0.1873779
vt 0.6251221 0.1563721
vt 0.6561279 0.1563721
vt 0.6561279 0.1873779
vt 0.6251221 0.1873779
vt 0.7813721 0.06262207
vt 0.8123779 0.06262207
vt 0.8123779 0.09362793
vt 0.7813721 0.09362793
vt 0.7501221 0.06262207
vt 0.7811279 0.06262207
vt 0.7811279 0.09362793
vt 0.7501221 0.09362793
vt 0.6251221 0.1251221
vt 0.6561279 0.1251221
vt 0.6561279 0.1561279
vt 0.6251221 0.1561279
vt 0.8126221 0.03137207
vt 0.8436279 0.03137207
vt 0.8436279 0.06237793
vt 0.8126221 0.06237793
vt 0.7813721 0.03137207
vt 0.8123779 0.03137207
vt 0.8123779 0.06237793
vt 0.7813721 0.06237793
vt 0.7501221 0.03137207
vt 0.7811279 0.03137207
vt 0.7811279 0.06237793
vt 0.7501221 0.06237793
vt 0.8751221 0.2813721
vt 0.9061279 0.2813721
vt 0.9061279 0.3123779
vt 0.8751221 0.3123779
vt 0.9688721 0.2813721
vt 0.9998779 0.2813721
vt 0.9998779 0.3123779
vt 0.9688721 0.3123779
vt 0.9376221 0.2813721
vt 0.9686279 0.2813721
vt 0.9686279 0.3123779
vt 0.9376221 0.3123779
vt 0.9688721 0.2501221
vt 0.9998779 0.2501221
vt 0.9998779 0.2811279
vt 0.9688721 0.2811279
vt 0.9376221 0.2501221
vt 0.9686279 0.2501221
vt 0.9686279 0.2811279
vt 0.9376221 0.2811279
vt 0.9688721 0.2188721
vt 0.9998779 0.2188721
vt 0.9998779 0.2498779
vt 0.9688721 0.2498779
vt 0.9376221 0.2188721
vt 0.9686279 0.2188721
vt 0.9686279 0.2498779
vt 0.9376221 0.2498779
vt 0.6251221 0.4688721
vt 0.6561279 0.4688721
vt 0.6561279 0.4998779
vt 0.6251221 0.4998779
vt 0.5938721 0.4688721
vt 0.6248779 0.4688721
vt 0.6248779 0.4998779
vt 0.5938721 0.4998779
vt 0.6251221 0.4376221
vt 0.6561279 0.4376221
vt 0.6561279 0.4686279
vt 0.6251221 0.4686279
vt 0.5938721 0.4376221
vt 0.6248779 0.4376221
vt 0.6248779 0.4686279
vt 0.5938721 0.4686279

# Normal
vn 0 0 -1

# Groups (Count = 6)

g mesh_0001
f 1/1/1 2/2/1 3/3/1 4/4/1
f 5/1/1 1/2/1 4/3/1 6/4/1
f 7/1/1 5/2/1 6/3/1 8/4/1
f 9/1/1 7/2/1 8/3/1 10/4/1
f 11/1/1 9/2/1 10/3/1 12/4/1
f 13/1/1 11/2/1 12/3/1 14/4/1
f 15/1/1 13/2/1 14/3/1 16/4/1
f 17/1/1 15/2/1 16/3/1 18/4/1
f 19/1/1 17/2/1 18/3/1 20/4/1
f 21/1/1 19/2/1 20/3/1 22/4/1
f 23/1/1 21/2/1 22/3/1 24/4/1
f 25/1/1 23/2/1 24/3/1 26/4/1
f 27/1/1 25/2/1 26/3/1 28/4/1
f 29/1/1 27/2/1 28/3/1 30/4/1
f 31/1/1 29/2/1 30/3/1 32/4/1
f 33/1/1 31/2/1 32/3/1 34/4/1
f 35/1/1 36/2/1 2/3/1 1/4/1
f 37/1/1 35/2/1 1/3/1 5/4/1
f 38/1/1 37/2/1 5/3/1 7/4/1
f 39/1/1 38/2/1 7/3/1 9/4/1
f 40/1/1 39/2/1 9/3/1 11/4/1
f 41/1/1 40/2/1 11/3/1 13/4/1
f 42/1/1 41/2/1 13/3/1 15/4/1
f 43/1/1 42/2/1 15/3/1 17/4/1
f 44/1/1 43/2/1 17/3/1 19/4/1
f 45/1/1 44/2/1 19/3/1 21/4/1
f 46/1/1 45/2/1 21/3/1 23/4/1
f 47/1/1 46/2/1 23/3/1 25/4/1
f 48/1/1 47/2/1 25/3/1 27/4/1
f 49/1/1 48/2/1 27/3/1 29/4/1
f 50/1/1 49/2/1 29/3/1 31/4/1
f 51/1/1 50/2/1 31/3/1 33/4/1
f 52/1/1 53/2/1 36/3/1 35/4/1
f 54/1/1 52/2/1 35/3/1 37/4/1
f 55/1/1 54/2/1 37/3/1 38/4/1
f 56/1/1 55/2/1 38/3/1 39/4/1
f 57/1/1 56/2/1 39/3/1 40/4/1
f 58/1/1 57/2/1 40/3/1 41/4/1
f 59/1/1 58/2/1 41/3/1 42/4/1
f 60/1/1 59/2/1 42/3/1 43/4/1
f 61/1/1 60/2/1 43/3/1 44/4/1
f 62/1/1 61/2/1 44/3/1 45/4/1
f 63/1/1 62/2/1 45/3/1 46/4/1
f 64/1/1 63/2/1 46/3/1 47/4/1
f 65/1/1 64/2/1 47/3/1 48/4/1
f 66/1/1 65/2/1 48/3/1 49/4/1
f 67/1/1 66/2/1 49/3/1 50/4/1
f 68/1/1 67/2/1 50/3/1 51/4/1
f 69/1/1 70/2/1 53/3/1 52/4/1
f 71/1/1 69/2/1 52/3/1 54/4/1
f 72/1/1 71/2/1 54/3/1 55/4/1
f 73/1/1 72/2/1 55/3/1 56/4/1
f 74/1/1 73/2/1 56/3/1 57/4/1
f 75/1/1 74/2/1 57/3/1 58/4/1
f 76/1/1 75/2/1 58/3/1 59/4/1
f 77/1/1 76/2/1 59/3/1 60/4/1
f 78/1/1 77/2/1 60/3/1 61/4/1
f 79/1/1 78/2/1 61/3/1 62/4/1
f 80/1/1 79/2/1 62/3/1 63/4/1
f 81/1/1 80/2/1 63/3/1 64/4/1
f 82/1/1 81/2/1 64/3/1 65/4/1
f 83/1/1 82/2/1 65/3/1 66/4/1
f 84/1/1 83/2/1 66/3/1 67/4/1
f 85/1/1 84/2/1 67/3/1 68/4/1
f 86/1/1 87/2/1 70/3/1 69/4/1
f 88/1/1 86/2/1 69/3/1 71/4/1
f 89/1/1 88/2/1 71/3/1 72/4/1
f 90/1/1 89/2/1 72/3/1 73/4/1
f 91/1/1 90/2/1 73/3/1 74/4/1
f 92/1/1 91/2/1 74/3/1 75/4/1
f 93/1/1 92/2/1 75/3/1 76/4/1
f 94/1/1 93/2/1 76/3/1 77/4/1
f 95/1/1 94/2/1 77/3/1 78/4/1
f 96/1/1 95/2/1 78/3/1 79/4/1
f 97/1/1 96/2/1 79/3/1 80/4/1
f 98/1/1 97/2/1 80/3/1 81/4/1
f 99/1/1 98/2/1 81/3/1 82/4/1
f 100/1/1 99/2/1 82/3/1 83/4/1
f 101/1/1 100/2/1 83/3/1 84/4/1
f 102/1/1 101/2/1 84/3/1 85/4/1
f 103/1/1 104/2/1 87/3/1 86/4/1
f 105/1/1 103/2/1 86/3/1 88/4/1
f 106/1/1 105/2/1 88/3/1 89/4/1
f 107/1/1 106/2/1 89/3/1 90/4/1
f 108/1/1 107/2/1 90/3/1 91/4/1
f 109/1/1 108/2/1 91/3/1 92/4/1
f 110/1/1 109/2/1 92/3/1 93/4/1
f 111/1/1 110/2/1 93/3/1 94/4/1
f 112/1/1 111/2/1 94/3/1 95/4/1
f 113/1/1 112/2/1 95/3/1 96/4/1
f 114/1/1 113/2/1 96/3/1 97/4/1
f 115/1/1 114/2/1 97/3/1 98/4/1
f 116/1/1 115/2/1 98/3/1 99/4/1
f 117/1/1 116/2/1 99/3/1 100/4/1
f 118/1/1 117/2/1 100/3/1 101/4/1
f 119/1/1 118/2/1 101/3/1 102/4/1
f 120/1/1 121/2/1 104/3/1 103/4/1
f 122/1/1 120/2/1 103/3/1 105/4/1
f 123/1/1 122/2/1 105/3/1 106/4/1
f 124/1/1 123/2/1 106/3/1 107/4/1
f 125/1/1 124/2/1 107/3/1 108/4/1
f 126/1/1 125/2/1 108/3/1 109/4/1
f 127/1/1 126/2/1 109/3/1 110/4/1
f 128/1/1 127/2/1 110/3/1 111/4/1
f 129/1/1 128/2/1 111/3/1 112/4/1
f 130/1/1 129/2/1 112/3/1 113/4/1
f 131/1/1 130/2/1 113/3/1 114/4/1
f 132/1/1 131/2/1 114/3/1 115/4/1
f 133/1/1 132/2/1 115/3/1 116/4/1
f 134/1/1 133/2/1 116/3/1 117/4/1
f 135/1/1 134/2/1 117/3/1 118/4/1
f 136/1/1 135/2/1 118/3/1 119/4/1
f 137/1/1 138/2/1 121/3/1 120/4/1
f 139/1/1 137/2/1 120/3/1 122/4/1
f 140/1/1 139/2/1 122/3/1 123/4/1
f 141/1/1 140/2/1 123/3/1 124/4/1
f 142/1/1 141/2/1 124/3/1 125/4/1
f 143/1/1 142/2/1 125/3/1 126/4/1
f 144/1/1 143/2/1 126/3/1 127/4/1
f 145/1/1 144/2/1 127/3/1 128/4/1
f 146/1/1 145/2/1 128/3/1 129/4/1
f 147/1/1 146/2/1 129/3/1 130/4/1
f 148/1/1 147/2/1 130/3/1 131/4/1
f 149/1/1 148/2/1 131/3/1 132/4/1
f 150/1/1 149/2/1 132/3/1 133/4/1
f 151/1/1 150/2/1 133/3/1 134/4/1
f 152/1/1 151/2/1 134/3/1 135/4/1
f 153/1/1 152/2/1 135/3/1 136/4/1
f 154/1/1 155/2/1 138/3/1 137/4/1
f 156/1/1 154/2/1 137/3/1 139/4/1
f 157/1/1 156/2/1 139/3/1 140/4/1
f 158/1/1 157/2/1 140/3/1 141/4/1
f 159/1/1 158/2/1 141/3/1 142/4/1
f 160/1/1 159/2/1 142/3/1 143/4/1
f 161/1/1 160/2/1 143/3/1 144/4/1
f 162/1/1 161/2/1 144/3/1 145/4/1
f 163/1/1 162/2/1 145/3/1 146/4/1
f 164/1/1 163/2/1 146/3/1 147/4/1
f 165/1/1 164/2/1 147/3/1 148/4/1
f 166/1/1 165/2/1 148/3/1 149/4/1
f 167/1/1 166/2/1 149/3/1 150/4/1
f 168/1/1 167/2/1 150/3/1 151/4/1
f 169/1/1 168/2/1 151/3/1 152/4/1
f 170/1/1 169/2/1 152/3/1 153/4/1

g mesh_0002
f 117/5/1 116/6/1 99/7/1 100/8/1
f 118/9/1 117/10/1 100/11/1 101/12/1
f 119/9/1 118/10/1 101/11/1 102/12/1
f 134/13/1 133/14/1 116/15/1 117/16/1
f 135/17/1 134/18/1 117/19/1 118/20/1
f 136/17/1 135/18/1 118/19/1 119/20/1
f 151/13/1 150/14/1 133/15/1 134/16/1
f 152/17/1 151/18/1 134/19/1 135/20/1
f 153/17/1 152/18/1 135/19/1 136/20/1
f 168/13/1 167/14/1 150/15/1 151/16/1
f 169/17/1 168/18/1 151/19/1 152/20/1
f 170/17/1 169/18/1 152/19/1 153/20/1

g mesh_0003
f 135/21/1 134/22/1 117/23/1 118/24/1
f 136/25/1 135/26/1 118/27/1 119/28/1
f 152/29/1 151/30/1 134/31/1 135/32/1
f 153/33/1 152/34/1 135/35/1 136/36/1
f 169/37/1 168/38/1 151/39/1 152/40/1
f 170/41/1 169/42/1 152/43/1 153/44/1

g mesh_0004
f 136/45/1 135/46/1 118/47/1 119/48/1

g mesh_0005
f 1/49/1 2/50/1 3/51/1 4/52/1
f 5/49/1 1/50/1 4/51/1 6/52/1
f 7/49/1 5/50/1 6/51/1 8/52/1
f 9/49/1 7/50/1 8/51/1 10/52/1
f 11/49/1 9/50/1 10/51/1 12/52/1
f 13/49/1 11/50/1 12/51/1 14/52/1
f 15/49/1 13/50/1 14/51/1 16/52/1
f 17/53/1 15/54/1 16/55/1 18/56/1
f 19/57/1 17/58/1 18/59/1 20/60/1
f 21/49/1 19/50/1 20/51/1 22/52/1
f 23/49/1 21/50/1 22/51/1 24/52/1
f 25/49/1 23/50/1 24/51/1 26/52/1
f 27/49/1 25/50/1 26/51/1 28/52/1
f 29/49/1 27/50/1 28/51/1 30/52/1
f 31/61/1 29/62/1 30/63/1 32/64/1
f 33/65/1 31/66/1 32/67/1 34/68/1
f 35/49/1 36/50/1 2/51/1 1/52/1
f 37/49/1 35/50/1 1/51/1 5/52/1
f 38/49/1 37/50/1 5/51/1 7/52/1
f 39/49/1 38/50/1 7/51/1 9/52/1
f 40/49/1 39/50/1 9/51/1 11/52/1
f 41/49/1 40/50/1 11/51/1 13/52/1
f 42/49/1 41/50/1 13/51/1 15/52/1
f 43/69/1 42/70/1 15/71/1 17/72/1
f 44/73/1 43/74/1 17/75/1 19/76/1
f 45/49/1 44/50/1 19/51/1 21/52/1
f 46/49/1 45/50/1 21/51/1 23/52/1
f 47/49/1 46/50/1 23/51/1 25/52/1
f 48/49/1 47/50/1 25/51/1 27/52/1
f 49/49/1 48/50/1 27/51/1 29/52/1
f 50/49/1 49/50/1 29/51/1 31/52/1
f 51/77/1 50/78/1 31/79/1 33/80/1
f 52/81/1 53/82/1 36/83/1 35/84/1
f 54/81/1 52/82/1 35/83/1 37/84/1
f 55/81/1 54/82/1 37/83/1 38/84/1
f 56/81/1 55/82/1 38/83/1 39/84/1
f 57/81/1 56/82/1 39/83/1 40/84/1
f 58/81/1 57/82/1 40/83/1 41/84/1
f 59/81/1 58/82/1 41/83/1 42/84/1
f 60/85/1 59/86/1 42/87/1 43/88/1
f 61/89/1 60/90/1 43/91/1 44/92/1
f 62/81/1 61/82/1 44/83/1 45/84/1
f 63/81/1 62/82/1 45/83/1 46/84/1
f 64/81/1 63/82/1 46/83/1 47/84/1
f 65/81/1 64/82/1 47/83/1 48/84/1
f 66/81/1 65/82/1 48/83/1 49/84/1
f 67/81/1 66/82/1 49/83/1 50/84/1
f 68/81/1 67/82/1 50/83/1 51/84/1

g mesh_0006
f 15/93/1 13/94/1 14/95/1 16/96/1
f 21/93/1 19/94/1 20/95/1 22/96/1
f 37/97/1 35/98/1 1/99/1 5/100/1
f 38/101/1 37/102/1 5/103/1 7/104/1
f 48/97/1 47/98/1 25/99/1 27/100/1
f 49/101/1 48/102/1 27/103/1 29/104/1
f 54/105/1 52/106/1 35/107/1 37/108/1
f 55/109/1 54/110/1 37/111/1 38/112/1
f 65/105/1 64/106/1 47/107/1 48/108/1
f 66/109/1 65/110/1 48/111/1 49/112/1
f 71/113/1 69/114/1 52/115/1 54/116/1
f 72/117/1 71/118/1 54/119/1 55/120/1
f 82/113/1 81/114/1 64/115/1 65/116/1
f 83/117/1 82/118/1 65/119/1 66/120/1
f 107/121/1 106/122/1 89/123/1 90/124/1
f 108/125/1 107/126/1 90/127/1 91/128/1
f 124/129/1 123/130/1 106/131/1 107/132/1
f 125/133/1 124/134/1 107/135/1 108/136/1

